<?xml version="1.0" encoding="UTF-8"?><svg id="b" xmlns="http://www.w3.org/2000/svg" viewBox="0 0 749.99 278.87"><defs><style>.d{fill-rule:evenodd;}</style></defs><g id="c"><polygon points="0 208.39 147.75 213.86 115.39 226.98 0 208.39"/><path class="d" d="M192.86,164.13c-.28,1.27-.44,2.39-.74,3.47-1.02,3.72-2.48,7.19-5.27,9.98-1.54,1.52-3.34,2.52-5.37,3.26-3.75,1.35-6.39,3.98-7.93,7.62-2.13,4.99-2.05,10.17-1.32,15.44.62,4.32,2.32,8.33,3.94,12.35,1.5,3.77,2.65,7.74,4.75,11.25,6.46,10.72,10.18,23.08,15.39,34.42,1.34,2.9,2.69,5.84,4.04,8.76,1.12,2.39,3.36,5.65,3.58,8.19-9.98-14.87-18.63-30.7-27.89-46.03-4.58-7.55-11.27-16.23-18.19-21.77-3.1-2.5-6.54-4.4-10.19-5.94-2.05-.87-4.15-1.63-6.27-2.37-3.05-1.06-6.23-1.55-9.43-1.57-6.93-.02-13.87.19-20.81.19-5.07.02-10.18,0-15.24-.34-3.54-.21-7.02-.91-10.5-1.52-4.37-.76-8.53-2.12-12.55-4-7.03-3.28-12.45-8.23-15.66-15.34-1.56-3.47-2.29-7.15-1.61-11,.03-.15.05-.32.09-.45.02-.06.07-.1.06-.06.4,1.73.74,3.51,1.25,5.25,1.25,4.23,3.74,7.66,7.3,10.2,4.02,2.86,8.56,4.44,13.41,5.2,6.14,1.01,12.23.57,18.35-.53,5.93-1.04,11.69-2.64,17.39-4.53,4.45-1.48,8.87-3.01,13.31-4.48,5.14-1.73,10.3-3.47,15.47-5.08,4.89-1.52,9.9-2.69,14.98-3.43,2.38-.36,4.82-.44,7.23-.59,4.07-.25,8.17-.21,12.2-.72,5.55-.68,10.99-2.01,15.58-5.56.09-.06.24-.1.63-.27Z"/><path class="d" d="M72.68,135.68c-2.43-1.27-4.84-2.52-7.25-3.79-1.65-.87-3.26-1.84-4.97-2.54-1.68-.7-3.19-.09-4.48,1.1-.49.44-1,.85-1.54,1.19-.21.15-.65.17-.81.06-.17-.15-.2-.59-.12-.83.79-2.54,2.39-4.46,4.49-6.01.12-.07.28-.11.44-.17-1.65-1.16-3.2-2.09-4.57-3.21-2.84-2.33-4.45-5.42-4.75-9.08-.15-1.8-.03-3.62,0-5.42,0-.32.21-.64.38-.95.34-.57.81-1.21,1.53-.93.58.19,1.26.7,1.47,1.23,1.63,4.25,3.96,8.08,6.45,11.85,2.65,4.08,5.9,7.55,9.63,10.58,1.63,1.35,3.07,2.9,4.02,4.85.27.55.34,1.21.49,1.82-.15.08-.28.17-.44.25Z"/><path class="d" d="M61.01,82.97c0,1.35.08,2.6,0,3.85-.16,2.62-.29,5.25-.63,7.85-.11.93-.69,1.88-1.26,2.66-.89,1.25-1.74,1.1-2.65-.29,1.88-1.61,2.26-3.89,2.47-6.15.19-2.31.13-4.63.16-6.96,0-.49-.12-.8-.71-1-5.88-2.16-11.19-5.25-15.15-10.24-1.01-1.29-1.71-2.83-2.41-4.31-.41-.85-.23-1.33.25-1.92.59-.09,1.04-.23,1.52-.23.39,0,.84.04,1.16.23.62.4,1.23.84,1.68,1.38.32.4.37,1.04.58,1.56,1.19,3.07,3.32,5.39,5.88,7.32,1.91,1.39,3.98,2.54,5.99,3.79.23.13.55.19.81.25.05-.06.09-.13.12-.21-.42-.34-.84-.68-1.25-1.01-.8-.7-1.59-1.35-1.75-2.48-.16-1.21.38-1.97,1.61-1.99,4.47-.04,8.11,1.48,10.36,5.58.43.8.92,1.56,1.36,2.33.87,1.59,2.45,2.35,3.81,3.38.3.23.47.62.7.95-.38.17-.75.46-1.11.47-2.27.02-4.14-1-5.94-2.28-1.69-1.18-3.56-1.97-5.6-2.54Z"/><path class="d" d="M62.7,149.81c-.16,2.62-1,5.04-2.28,7.34-.33.59-.92.7-1.26.11-.41-.72-.73-1.56-.84-2.37-.28-2.1-.4-4.23-.68-6.32-.23-1.86-1.55-3.15-2.58-4.59-1.09-1.52-2.22-3-3.33-4.5-.13-.17-.25-.36-.31-.57-.29-.85-.08-1.19.83-1.06,2.49.32,4.57,1.52,6.34,3.28,2.42,2.37,3.97,5.18,4.11,8.67Z"/><path d="M42.84,54.94s1.99-4.1,5.65-9.48c1.87-2.67,4.04-5.77,6.66-8.84,2.67-3.02,5.71-6.09,8.61-9.29,2.75-3.3,5.6-6.54,8.14-9.69,2.48-3.21,4.8-6.18,6.77-8.76,3.72-5.31,6.19-8.88,6.19-8.88l.57.3s-1.92,3.93-4.81,9.82c-1.58,2.86-3.54,6.16-5.67,9.67-2.2,3.47-4.69,7.07-7.11,10.73-2.6,3.51-4.91,7.28-7.53,10.43-2.69,3.11-5.4,5.82-7.95,7.95-4.99,4.36-9.05,6.47-9.05,6.47l-.47-.44Z"/><path d="M234.36,227.49v-3.54h4.97c.67,0,1.45-.88,1.45-1.44v-44.65c0-.56-.79-1.45-1.45-1.45h-4.97v-3.59h20.78c18.56,0,27.21,8.68,27.21,27.32s-8.65,27.34-27.21,27.34h-20.78ZM255.13,223.78c16.43,0,23.14-6.84,23.14-23.63s-6.7-23.65-23.14-23.65h-10.31v47.28h10.31Z"/><path d="M314.19,227.72c-12.41,0-19.82-7.78-19.82-20.8s7.72-21.06,18.78-21.06,17.41,6.95,17.41,19.06c0,.64-.08,1.09-.08,1.09l-.18,1.04h-31.87c.04,11.05,5.63,17.13,15.76,17.13,6.5,0,10.72-2.3,12.37-4.27l.37-.44h2.88v3.04l-.43.38c-1.71,1.45-6.62,4.84-15.19,4.84ZM326.53,203.45c-.48-9.29-4.99-13.99-13.39-13.99-7.96,0-13.43,5.32-14.51,13.99h27.9Z"/><path d="M366.97,227.49v-3.54h7.68v-26.94c0-6.21-2.96-7.47-7.4-7.47-5.21,0-10.81,2.56-16.64,7.6v26.81h7.68v3.54h-17.56v-3.54h4.84c.51,0,1.06-.56,1.06-1.07v-31.99c0-.5-.56-1.04-1.06-1.04h-5.25v-3.62h8.17c2.14,0,2.14,1.99,2.14,2.65v3.72c5.32-4.37,11.18-6.75,16.71-6.75,7.51,0,11.32,3.69,11.32,10.95v26.08c0,.51.56,1.07,1.07,1.07h4.45v3.54h-17.19Z"/><path d="M407.67,227.72c-6.38,0-9.61-3.12-9.61-9.26v-28.61h-6.03v-3.62h6.03v-10.87h4v10.87h11.17v3.62h-11.17v28.57c0,4.15,1.52,5.7,5.61,5.7,1.5,0,3.04-.43,3.6-.83l.32-.23h2.67v3.44l-.8.31c-1.31.52-3.86.91-5.8.91Z"/><path d="M457.45,227.72c-3.77,0-5.8-1.76-6.18-5.37-2.89,3.02-6.79,5.37-13.36,5.37-8.46,0-13.32-4.45-13.32-12.21s6.14-12.21,16.84-12.21c3.46,0,6.75.34,9.78,1.01v-6.92c0-5.65-2.58-7.84-9.19-7.84-5.05,0-9.4,1.28-11.94,3.5l-.36.31h-2.6v-3.52l.6-.36c2.72-1.64,7.43-3.61,14.44-3.61,8.77,0,13.04,3.75,13.04,11.47v23.72c0,2.69.74,2.99,2.32,2.99.59,0,1.36-.19,1.6-.26l1.59-.46v3.63l-.81.31c-.13.05-1.29.47-2.46.47ZM441.48,206.93c-4.82,0-12.9,1.1-12.9,8.5,0,5.76,3.17,8.69,9.42,8.69s10.04-2.81,13.21-7.08v-9c-3.17-.75-6.37-1.11-9.73-1.11Z"/><path d="M470.15,227.49v-3.54h5.27c.51,0,1.07-.56,1.07-1.07v-45.39c0-.52-.56-1.08-1.07-1.08h-5.56v-3.59h8.7c.93,0,1.92.54,1.92,2.05v48.01c0,.51.55,1.07,1.05,1.07h5.27v3.54h-16.66Z"/><path d="M547.47,227.72c-15.25,0-24.35-10.39-24.35-27.8,0-20.17,13.44-27.33,24.95-27.33,6.47,0,10.48,1.17,12.63,1.8.4.12.85.25,1.13.31.02-.15.04-.37.05-.67l.04-1.2h3.58v16.18h-3.54l-.64-9.6c-2.46-2.09-6.89-3.15-13.17-3.15-10.11,0-20.9,6.2-20.9,23.58,0,15.37,7.37,24.19,20.22,24.19,7.73,0,13.24-2.28,15.94-6.58l.36-.58h3.2v2.99l-.32.36c-4.76,5.33-10.31,7.51-19.18,7.51Z"/><path d="M578.66,227.49v-3.54h5.29c.5,0,1.07-.57,1.07-1.07v-45.39c0-.5-.58-1.08-1.07-1.08h-5.58v-3.59h8.71c.92,0,1.91.54,1.91,2.05v48.01c0,.51.56,1.07,1.08,1.07h5.27v3.54h-16.67Z"/><path d="M606.13,227.49v-3.54h5.26c.51,0,1.07-.56,1.07-1.07v-31.99c0-.5-.56-1.04-1.07-1.04h-5.71v-3.62h8.63c2.13,0,2.13,1.99,2.13,2.65v34.01c0,.51.55,1.07,1.06,1.07h5.28v3.54h-16.65ZM614.06,181.8c-1.42,0-2.58-1.17-2.58-2.59s1.13-2.59,2.58-2.59,2.6,1.13,2.6,2.59-1.17,2.59-2.6,2.59Z"/><path d="M659.75,227.49v-3.54h7.68v-26.94c0-6.21-2.97-7.47-7.43-7.47-6.45,0-12.54,4.05-16.63,7.6v26.81h7.67v3.54h-17.55v-3.54h4.83c.51,0,1.07-.56,1.07-1.07v-31.99c0-.5-.56-1.04-1.07-1.04h-5.27v-3.62h8.16c2.16,0,2.16,1.99,2.16,2.65v3.72c3.77-3.09,9.71-6.75,16.72-6.75,7.49,0,11.29,3.69,11.29,10.95v26.08c0,.5.56,1.07,1.06,1.07h4.45v3.54h-17.15Z"/><path d="M687.7,227.49v-3.54h5.27c.53,0,1.09-.55,1.09-1.07v-31.99c0-.5-.58-1.04-1.09-1.04h-5.71v-3.62h8.64c2.14,0,2.14,1.99,2.14,2.65v34.01c0,.51.55,1.07,1.06,1.07h5.25v3.54h-16.65ZM695.67,181.8c-1.43,0-2.59-1.17-2.59-2.59s1.13-2.59,2.59-2.59,2.58,1.13,2.58,2.59-1.16,2.59-2.58,2.59Z"/><path d="M735.12,227.72c-12.12,0-19.36-7.86-19.36-21.03,0-12.47,7.96-20.84,19.81-20.84,6.75,0,10.41,1.34,12.84,2.52l.7.34v8.37h-3.64l-.04-1.2c-.16-4.37-.73-4.76-2.12-5.3-1.73-.69-4.7-1.11-7.75-1.11-9.72,0-15.76,6.6-15.76,17.24s5.58,17.48,15.31,17.48c7.6,0,10.63-3.31,11.58-4.73l.37-.55h2.93v2.77l-.27.34c-2.08,2.64-7.16,5.72-14.6,5.72Z"/><path d="M235.84,155.18h3.14c1.12,0,2.32-1.33,2.32-2.37v-37.72c0-1.12-1.2-2.46-2.32-2.46h-3.14v-4.93h21.14c17.4,0,27.18,7.77,27.18,26s-9.85,26.27-27.47,26.27h-20.84v-4.78ZM256.68,154.89c12.54,0,18.43-6.2,18.43-21.15s-5.82-20.75-18.43-20.75h-6.73v41.9h6.73Z"/><path d="M288.18,133.84c0-17.26,11.5-26.67,25.09-26.67s25.02,9.41,25.02,26.67-11.5,26.65-25.02,26.65-25.09-9.41-25.09-26.65ZM329.25,133.99c0-13.9-6.8-20.92-15.98-20.92s-16.05,7.02-16.05,20.92,6.8,20.82,16.05,20.82,15.98-7.02,15.98-20.82Z"/><path d="M340.75,155.18h3.13c1.12,0,2.31-1.33,2.31-2.37v-37.72c0-1.12-1.19-2.46-2.31-2.46h-3.13v-4.93h21.36c11.95,0,19.78,4.19,19.78,14.41,0,7.47-4.63,10.9-11.72,12.25v.23c5.3,1.12,8.29,3.2,10.53,11.64l1.87,6.94c.37,1.35,1.42,2.01,2.17,2.01h2.54v4.78h-12.25l-2.91-14.11c-1.42-6.79-4.03-8.72-10.75-8.72h-6.5v18.06h6.64v4.78h-20.75v-4.78ZM361.96,131.96c8.06,0,11.05-3,11.05-9.33s-3.28-9.71-11.05-9.71h-7.09v19.04h7.09Z"/><path d="M387.34,133.84c0-17.26,11.5-26.67,25.09-26.67s25.01,9.41,25.01,26.67-11.49,26.65-25.01,26.65-25.09-9.41-25.09-26.65ZM428.41,133.99c0-13.9-6.8-20.92-15.98-20.92s-16.05,7.02-16.05,20.92,6.79,20.82,16.05,20.82,15.98-7.02,15.98-20.82Z"/><path d="M451.78,155.18h3.58c1.2,0,2.31-1.33,2.31-2.37v-39.96h-11.19l-.76,11.06h-5.6v-16.22h43.75v16.22h-5.59l-.75-11.06h-11.2v39.96c0,1.04,1.12,2.37,2.31,2.37h3.58v4.78h-20.46v-4.78Z"/><path d="M486.58,133.84c0-17.26,11.49-26.67,25.09-26.67s25.02,9.41,25.02,26.67-11.51,26.65-25.02,26.65-25.09-9.41-25.09-26.65ZM527.64,133.99c0-13.9-6.79-20.92-15.97-20.92s-16.05,7.02-16.05,20.92,6.79,20.82,16.05,20.82,15.97-7.02,15.97-20.82Z"/><path d="M540.78,115.08c-.44-1.35-1.64-2.46-2.98-2.46h-1.35v-4.93h18.97l.38,4.93h-6.66l8.74,36.15h.23l10.89-41.08h7.02l10.97,41.08h.15l7.78-31.22c1.04-3.2.23-4.93-2.69-4.93h-2.9v-4.93h17.76v4.93h-1.27c-1.41,0-2.68,1.12-3.21,2.69l-11.73,44.65h-9.33l-9.86-37.17h-.14l-10.08,37.17h-9.33l-11.36-44.87Z"/><path d="M615.53,158.02c-.51,0-.96.83-1.11,1.93h-5.67v-15.23h5.89l.74,6.35c2.63,2.54,5.31,3.95,10.9,3.95,5.98,0,9.94-2.75,9.94-8.5,0-7.09-5.22-7.91-12.84-10.01-9.19-2.52-13.74-6.35-13.74-15.23,0-9.41,6.94-14.11,16.59-14.11,5.29,0,7.91,1.42,9.41,2.16.51,0,1.04-.89,1.1-1.65h5.46v13.83h-5.75l-.76-5.24c-1.86-1.78-4.4-3.56-9.46-3.56-5.46,0-9.2,2.07-9.2,7.76,0,6.12,4.78,7.17,11.95,9.1,10,2.69,15.08,5.9,15.08,15.53s-6.12,15.38-17.62,15.38c-5.89,0-8.88-1.35-10.91-2.46Z"/><path d="M646.82,155.18h3.15c1.1,0,2.29-1.33,2.29-2.37v-37.72c0-1.12-1.19-2.46-2.29-2.46h-3.15v-4.93h20.16v4.93h-6.05v23.08l18-19.04c2.31-2.39,1.72-4.04-.89-4.04h-1.35v-4.93h18.23v4.93h-2.18c-1.26,0-2.6.97-4.1,2.46l-14.19,14.19,15.83,23.54c.82,1.25,2.01,2.37,3.36,2.37h2.02v4.78h-13.59v-4.47l-13.59-20.24-7.55,7.62v12.31h6.05v4.78h-20.16v-4.78Z"/><path d="M732.85,143.47h-20.46l-2.02,5.75c-1.35,3.72-.9,5.95,2.39,5.95h3.52v4.78h-18.61v-4.78h1.88c1.49,0,2.6-1.03,3.21-2.52l13.52-37.48c.51-1.5-.23-2.56-1.57-2.56h-4.04v-4.93h18.9l15.3,45.02c.46,1.35,1.73,2.47,3,2.47h2.01v4.78h-20.39v-4.78h7.32l-3.94-11.7ZM714.24,138.39h16.95l-8.06-24.28h-.3l-8.59,24.28Z"/></g></svg>