<?xml version="1.0" encoding="UTF-8"?>
<svg id="b" xmlns="http://www.w3.org/2000/svg" version="1.1" viewBox="0 0 515.6 120.6">
  <!-- Generator: Adobe Illustrator 29.4.0, SVG Export Plug-In . SVG Version: 2.1.0 Build 152)  -->
  <g id="c">
    <path d="M0,120.3v-3.5h5c.7,0,1.4-.9,1.4-1.4v-44.6c0-.6-.8-1.4-1.4-1.4H0v-3.6h20.8c18.6,0,27.2,8.7,27.2,27.3s-8.6,27.3-27.2,27.3H0ZM20.8,116.6c16.4,0,23.1-6.8,23.1-23.6s-6.7-23.6-23.1-23.6h-10.3v47.3h10.3,0Z"/>
    <path d="M79.8,120.6c-12.4,0-19.8-7.8-19.8-20.8s7.7-21.1,18.8-21.1,17.4,6.9,17.4,19.1,0,1.1,0,1.1l-.2,1h-31.9c0,11.1,5.6,17.1,15.8,17.1s10.7-2.3,12.4-4.3l.4-.4h2.9v3l-.4.4c-1.7,1.4-6.6,4.8-15.2,4.8h0ZM92.2,96.3c-.5-9.3-5-14-13.4-14s-13.4,5.3-14.5,14h27.9Z"/>
    <path d="M132.6,120.3v-3.5h7.7v-26.9c0-6.2-3-7.5-7.4-7.5s-10.8,2.6-16.6,7.6v26.8h7.7v3.5h-17.6v-3.5h4.8c.5,0,1.1-.6,1.1-1.1v-32c0-.5-.6-1-1.1-1h-5.2v-3.6h8.2c2.1,0,2.1,2,2.1,2.6v3.7c5.3-4.4,11.2-6.8,16.7-6.8s11.3,3.7,11.3,10.9v26.1c0,.5.6,1.1,1.1,1.1h4.5v3.5h-17.2Z"/>
    <path d="M173.3,120.6c-6.4,0-9.6-3.1-9.6-9.3v-28.6h-6v-3.6h6v-10.9h4v10.9h11.2v3.6h-11.2v28.6c0,4.1,1.5,5.7,5.6,5.7s3-.4,3.6-.8l.3-.2h2.7v3.4l-.8.3c-1.3.5-3.9.9-5.8.9h0Z"/>
    <path d="M223.1,120.6c-3.8,0-5.8-1.8-6.2-5.4-2.9,3-6.8,5.4-13.4,5.4s-13.3-4.4-13.3-12.2,6.1-12.2,16.8-12.2,6.8.3,9.8,1v-6.9c0-5.6-2.6-7.8-9.2-7.8s-9.4,1.3-11.9,3.5l-.4.3h-2.6v-3.5l.6-.4c2.7-1.6,7.4-3.6,14.4-3.6s13,3.8,13,11.5v23.7c0,2.7.7,3,2.3,3s1.4-.2,1.6-.3l1.6-.5v3.6l-.8.3c-.1,0-1.3.5-2.5.5h0ZM207.1,99.8c-4.8,0-12.9,1.1-12.9,8.5s3.2,8.7,9.4,8.7,10-2.8,13.2-7.1v-9c-3.2-.8-6.4-1.1-9.7-1.1Z"/>
    <path d="M235.8,120.3v-3.5h5.3c.5,0,1.1-.6,1.1-1.1v-45.4c0-.5-.6-1.1-1.1-1.1h-5.6v-3.6h8.7c.9,0,1.9.5,1.9,2.1v48c0,.5.5,1.1,1,1.1h5.3v3.5h-16.7,0Z"/>
    <path d="M313.1,120.6c-15.2,0-24.3-10.4-24.3-27.8s13.4-27.3,25-27.3,10.5,1.2,12.6,1.8c.4.1.8.2,1.1.3,0-.1,0-.4,0-.7v-1.2h3.6v16.2h-3.5l-.6-9.6c-2.5-2.1-6.9-3.1-13.2-3.1-10.1,0-20.9,6.2-20.9,23.6s7.4,24.2,20.2,24.2,13.2-2.3,15.9-6.6l.4-.6h3.2v3l-.3.4c-4.8,5.3-10.3,7.5-19.2,7.5h0Z"/>
    <path d="M344.3,120.3v-3.5h5.3c.5,0,1.1-.6,1.1-1.1v-45.4c0-.5-.6-1.1-1.1-1.1h-5.6v-3.6h8.7c.9,0,1.9.5,1.9,2.1v48c0,.5.6,1.1,1.1,1.1h5.3v3.5h-16.7Z"/>
    <path d="M371.8,120.3v-3.5h5.3c.5,0,1.1-.6,1.1-1.1v-32c0-.5-.6-1-1.1-1h-5.7v-3.6h8.6c2.1,0,2.1,2,2.1,2.6v34c0,.5.5,1.1,1.1,1.1h5.3v3.5h-16.7ZM379.7,74.6c-1.4,0-2.6-1.2-2.6-2.6s1.1-2.6,2.6-2.6,2.6,1.1,2.6,2.6-1.2,2.6-2.6,2.6Z"/>
    <path d="M425.4,120.3v-3.5h7.7v-26.9c0-6.2-3-7.5-7.4-7.5-6.5,0-12.5,4.1-16.6,7.6v26.8h7.7v3.5h-17.5v-3.5h4.8c.5,0,1.1-.6,1.1-1.1v-32c0-.5-.6-1-1.1-1h-5.3v-3.6h8.2c2.2,0,2.2,2,2.2,2.6v3.7c3.8-3.1,9.7-6.8,16.7-6.8s11.3,3.7,11.3,10.9v26.1c0,.5.6,1.1,1.1,1.1h4.5v3.5h-17.2,0Z"/>
    <path d="M453.3,120.3v-3.5h5.3c.5,0,1.1-.6,1.1-1.1v-32c0-.5-.6-1-1.1-1h-5.7v-3.6h8.6c2.1,0,2.1,2,2.1,2.6v34c0,.5.5,1.1,1.1,1.1h5.2v3.5h-16.7ZM461.3,74.6c-1.4,0-2.6-1.2-2.6-2.6s1.1-2.6,2.6-2.6,2.6,1.1,2.6,2.6-1.2,2.6-2.6,2.6Z"/>
    <path d="M500.8,120.6c-12.1,0-19.4-7.9-19.4-21s8-20.8,19.8-20.8,10.4,1.3,12.8,2.5l.7.3v8.4h-3.6v-1.2c-.2-4.4-.8-4.8-2.2-5.3-1.7-.7-4.7-1.1-7.8-1.1-9.7,0-15.8,6.6-15.8,17.2s5.6,17.5,15.3,17.5,10.6-3.3,11.6-4.7l.4-.6h2.9v2.8l-.3.3c-2.1,2.6-7.2,5.7-14.6,5.7h0Z"/>
    <path d="M1.5,48h3.1c1.1,0,2.3-1.3,2.3-2.4V7.9c0-1.1-1.2-2.5-2.3-2.5H1.5V.5h21.1c17.4,0,27.2,7.8,27.2,26s-9.9,26.3-27.5,26.3H1.5v-4.8h0ZM22.3,47.7c12.5,0,18.4-6.2,18.4-21.1S34.9,5.8,22.3,5.8h-6.7v41.9h6.7Z"/>
    <path d="M53.8,26.7c0-17.3,11.5-26.7,25.1-26.7s25,9.4,25,26.7-11.5,26.6-25,26.6-25.1-9.4-25.1-26.6ZM94.9,26.8c0-13.9-6.8-20.9-16-20.9s-16,7-16,20.9,6.8,20.8,16,20.8,16-7,16-20.8h0Z"/>
    <path d="M106.4,48h3.1c1.1,0,2.3-1.3,2.3-2.4V7.9c0-1.1-1.2-2.5-2.3-2.5h-3.1V.5h21.4c12,0,19.8,4.2,19.8,14.4s-4.6,10.9-11.7,12.2v.2c5.3,1.1,8.3,3.2,10.5,11.6l1.9,6.9c.4,1.4,1.4,2,2.2,2h2.5v4.8h-12.2l-2.9-14.1c-1.4-6.8-4-8.7-10.8-8.7h-6.5v18.1h6.6v4.8h-20.8v-4.8h0ZM127.6,24.8c8.1,0,11-3,11-9.3s-3.3-9.7-11-9.7h-7.1v19h7.1Z"/>
    <path d="M153,26.7c0-17.3,11.5-26.7,25.1-26.7s25,9.4,25,26.7-11.5,26.6-25,26.6-25.1-9.4-25.1-26.6ZM194.1,26.8c0-13.9-6.8-20.9-16-20.9s-16,7-16,20.9,6.8,20.8,16,20.8,16-7,16-20.8h0Z"/>
    <path d="M217.4,48h3.6c1.2,0,2.3-1.3,2.3-2.4V5.7h-11.2l-.8,11.1h-5.6V.5h43.8v16.2h-5.6l-.8-11.1h-11.2v40c0,1,1.1,2.4,2.3,2.4h3.6v4.8h-20.5v-4.8h0Z"/>
    <path d="M252.2,26.7c0-17.3,11.5-26.7,25.1-26.7s25,9.4,25,26.7-11.5,26.6-25,26.6-25.1-9.4-25.1-26.6h0ZM293.3,26.8c0-13.9-6.8-20.9-16-20.9s-16,7-16,20.9,6.8,20.8,16,20.8,16-7,16-20.8h0Z"/>
    <path d="M306.4,7.9c-.4-1.3-1.6-2.5-3-2.5h-1.3V.5h19l.4,4.9h-6.7l8.7,36.2h.2L334.6.5h7l11,41.1h.2l7.8-31.2c1-3.2.2-4.9-2.7-4.9h-2.9V.5h17.8v4.9h-1.3c-1.4,0-2.7,1.1-3.2,2.7l-11.7,44.7h-9.3l-9.9-37.2h-.1l-10.1,37.2h-9.3l-11.4-44.9h0Z"/>
    <path d="M381.2,50.9c-.5,0-1,.8-1.1,1.9h-5.7v-15.2h5.9l.7,6.4c2.6,2.5,5.3,3.9,10.9,3.9s9.9-2.8,9.9-8.5-5.2-7.9-12.8-10c-9.2-2.5-13.7-6.4-13.7-15.2S382.2,0,391.9,0s7.9,1.4,9.4,2.2c.5,0,1-.9,1.1-1.7h5.5v13.8h-5.8l-.8-5.2c-1.9-1.8-4.4-3.6-9.5-3.6s-9.2,2.1-9.2,7.8,4.8,7.2,12,9.1c10,2.7,15.1,5.9,15.1,15.5s-6.1,15.4-17.6,15.4-8.9-1.4-10.9-2.5h0Z"/>
    <path d="M412.5,48h3.2c1.1,0,2.3-1.3,2.3-2.4V7.9c0-1.1-1.2-2.5-2.3-2.5h-3.2V.5h20.2v4.9h-6v23.1l18-19c2.3-2.4,1.7-4-.9-4h-1.3V.5h18.2v4.9h-2.2c-1.3,0-2.6,1-4.1,2.5l-14.2,14.2,15.8,23.5c.8,1.2,2,2.4,3.4,2.4h2v4.8h-13.6v-4.5l-13.6-20.2-7.5,7.6v12.3h6v4.8h-20.2v-4.8h0Z"/>
    <path d="M498.5,36.3h-20.5l-2,5.8c-1.3,3.7-.9,5.9,2.4,5.9h3.5v4.8h-18.6v-4.8h1.9c1.5,0,2.6-1,3.2-2.5l13.5-37.5c.5-1.5-.2-2.6-1.6-2.6h-4V.5h18.9l15.3,45c.5,1.4,1.7,2.5,3,2.5h2v4.8h-20.4v-4.8h7.3l-3.9-11.7h0ZM479.9,31.2h17l-8.1-24.3h-.3l-8.6,24.3Z"/>
  </g>
</svg>