<?xml version="1.0" encoding="UTF-8"?><svg id="b" xmlns="http://www.w3.org/2000/svg" viewBox="0 0 390.1 533.42"><defs><style>.d,.e{fill:#303a44;}.e{fill-rule:evenodd;}</style></defs><g id="c"><polygon class="d" points="0 398.59 282.62 409.03 220.72 434.15 0 398.59"/><path class="e" d="M368.93,313.93c-.55,2.43-.87,4.57-1.42,6.64-1.98,7.1-4.74,13.76-10.08,19.08-2.94,2.9-6.38,4.83-10.27,6.23-7.17,2.57-12.23,7.59-15.17,14.57-4.06,9.57-3.91,19.46-2.51,29.55,1.17,8.27,4.44,15.91,7.53,23.63,2.85,7.23,5.06,14.79,9.06,21.51,12.36,20.46,19.51,44.11,29.44,65.83,2.55,5.53,5.17,11.17,7.76,16.74,2.13,4.59,6.4,10.85,6.83,15.72-19.06-28.5-35.63-58.75-53.33-88.08-8.76-14.42-21.55-31.01-34.8-41.63-5.95-4.83-12.53-8.42-19.5-11.34-3.91-1.7-7.93-3.13-12-4.55-5.83-2.02-11.93-2.98-18-3-13.29-.04-26.57.34-39.86.34-9.7.04-19.44,0-29.12-.62-6.79-.45-13.44-1.79-20.08-2.93-8.4-1.43-16.34-4.04-24.01-7.64-13.44-6.3-23.82-15.74-29.95-29.35-3.04-6.66-4.4-13.68-3.08-21.04.04-.3.04-.62.19-.89.04-.09.11-.19.11-.09.77,3.3,1.41,6.68,2.38,10.04,2.4,8.06,7.17,14.66,13.95,19.53,7.7,5.47,16.4,8.46,25.7,9.93,11.76,1.89,23.35,1.06,35.07-1.02,11.34-1.98,22.38-5.04,33.25-8.68,8.51-2.85,16.95-5.76,25.46-8.57,9.85-3.27,19.72-6.64,29.61-9.72,9.36-2.89,18.95-5.15,28.67-6.55,4.55-.7,9.19-.83,13.8-1.13,7.81-.49,15.63-.38,23.38-1.38,10.57-1.32,21.02-3.83,29.78-10.63.17-.11.47-.17,1.21-.49Z"/><path class="e" d="M139.04,259.52c-4.68-2.42-9.25-4.85-13.89-7.25-3.15-1.68-6.21-3.53-9.49-4.87-3.21-1.36-6.11-.19-8.55,2.08-.96.85-1.94,1.64-2.96,2.32-.43.28-1.26.32-1.53.06-.34-.28-.36-1.11-.23-1.6,1.49-4.81,4.55-8.51,8.59-11.49.23-.15.49-.19.83-.32-3.15-2.19-6.13-4-8.72-6.13-5.44-4.49-8.53-10.38-9.1-17.38-.3-3.47-.06-6.91.04-10.36,0-.64.36-1.23.7-1.85.64-1.07,1.53-2.34,2.92-1.74,1.1.34,2.4,1.32,2.81,2.36,3.15,8.12,7.59,15.44,12.36,22.63,5.04,7.85,11.27,14.46,18.4,20.25,3.13,2.6,5.87,5.57,7.7,9.3.51,1.08.64,2.34.94,3.49-.3.13-.53.32-.81.49Z"/><path class="e" d="M116.69,158.68c0,2.59.19,4.98,0,7.36-.28,5.02-.55,10.08-1.19,15.04-.19,1.79-1.3,3.57-2.38,5.04-1.7,2.43-3.36,2.15-5.06-.51,3.57-3.08,4.3-7.47,4.72-11.76.34-4.4.25-8.85.3-13.31,0-.91-.23-1.53-1.36-1.89-11.25-4.17-21.4-10.06-29.01-19.63-1.89-2.45-3.25-5.38-4.6-8.19-.79-1.66-.43-2.57.49-3.7,1.08-.15,1.98-.41,2.89-.41.75,0,1.62.06,2.21.41,1.19.79,2.36,1.59,3.19,2.66.64.75.72,2.02,1.08,2.98,2.34,5.87,6.4,10.29,11.29,14,3.64,2.64,7.62,4.87,11.46,7.27.43.23,1.04.36,1.55.45.06-.09.15-.26.23-.4-.81-.64-1.62-1.3-2.4-1.92-1.55-1.36-3.02-2.57-3.36-4.76-.34-2.28.74-3.74,3.13-3.76,8.51-.11,15.48,2.81,19.8,10.64.81,1.53,1.74,3,2.57,4.47,1.68,3.02,4.7,4.51,7.3,6.47.59.4.91,1.19,1.36,1.79-.72.36-1.45.92-2.11.94-4.36.02-7.96-1.94-11.38-4.36-3.23-2.23-6.79-3.77-10.74-4.87Z"/><path class="e" d="M119.94,286.53c-.3,5-1.96,9.64-4.36,14.04-.64,1.13-1.74,1.34-2.42.19-.72-1.34-1.38-2.96-1.59-4.49-.55-4.04-.77-8.12-1.32-12.08-.45-3.57-2.98-6.04-4.91-8.81-2.11-2.91-4.23-5.72-6.38-8.59-.28-.34-.47-.68-.57-1.08-.57-1.62-.17-2.27,1.58-2.04,4.79.64,8.74,2.93,12.15,6.27,4.59,4.57,7.59,9.93,7.85,16.59Z"/><path class="d" d="M81.93,105.05s3.81-7.83,10.83-18.14c3.59-5.13,7.74-11,12.74-16.91,5.11-5.76,10.91-11.61,16.48-17.76,5.25-6.27,10.7-12.49,15.55-18.55,4.76-6.08,9.17-11.83,12.96-16.74,7.1-10.17,11.87-16.95,11.87-16.95l1.06.53s-3.68,7.53-9.19,18.82c-3.04,5.47-6.76,11.76-10.83,18.48-4.23,6.66-9,13.53-13.61,20.55-5,6.72-9.4,13.91-14.42,19.97-5.15,5.91-10.34,11.1-15.17,15.17-9.57,8.34-17.34,12.38-17.34,12.38l-.93-.85Z"/></g></svg>